<?xml version="1.0" encoding="iso-8859-1"?>
<!-- Generator: Adobe Illustrator 19.0.0, SVG Export Plug-In . SVG Version: 6.00 Build 0)  -->
<svg version="1.1" id="Layer_1" xmlns="http://www.w3.org/2000/svg" xmlns:xlink="http://www.w3.org/1999/xlink" x="0px" y="0px"
	 viewBox="0 0 496.158 496.158" style="enable-background:new 0 0 496.158 496.158;" xml:space="preserve">
<path style="fill:#EDC92F;" d="M248.075,0C111.07,0,0,111.062,0,248.083c0,137.005,111.07,248.075,248.075,248.075
	c137.013,0,248.083-111.07,248.083-248.075C496.158,111.062,385.088,0,248.075,0z"/>
<path style="fill:#BE802B;" d="M412.853,197.674c0.008,0.268,0.05,0.543,0.05,0.811c0,36.432-70.538,65.962-157.554,65.962
	c-87.013,0-157.555-29.531-157.555-65.962c0-0.268,0.042-0.543,0.05-0.811h-16.2v100.045h0.384c0,45.429,77.599,82.25,173.32,82.25
	c95.723,0,173.322-36.822,173.322-82.25V197.674H412.853z"/>
<path style="fill:#60390B;" d="M255.349,116.234c-95.721,0-173.32,36.822-173.32,82.25s77.599,82.258,173.32,82.258
	c95.723,0,173.322-36.83,173.322-82.258S351.072,116.234,255.349,116.234z M255.349,264.447
	c-87.013,0-157.555-29.531-157.555-65.962c0-36.424,70.542-65.955,157.555-65.955c87.015,0,157.554,29.531,157.554,65.955
	C412.903,234.916,342.364,264.447,255.349,264.447z"/>
<path style="fill:#91581A;" d="M255.349,132.53c-87.013,0-157.555,29.531-157.555,65.955c0,19.562,20.358,37.128,52.668,49.208
	c27.859-10.42,64.599-16.755,104.887-16.755c40.289,0,77.029,6.335,104.888,16.755c32.308-12.08,52.666-29.646,52.666-49.208
	C412.903,162.06,342.364,132.53,255.349,132.53z"/>
<g>
	<path style="fill:#72480E;" d="M254.117,280.819v99.15c26.905,0,48.718-22.194,48.718-49.575
		C302.835,303.021,281.022,280.819,254.117,280.819z"/>
	<path style="fill:#72480E;" d="M82.029,198.485c0-0.268,0.038-0.543,0.044-0.811h-0.428v100.045h0.384
		c0,45.345,77.331,82.121,172.823,82.243v-99.143c0.168,0,0.331,0.023,0.498,0.031v-0.107
		C159.628,280.743,82.029,243.913,82.029,198.485z"/>
</g>
<g>
	<circle style="fill:#BE802B;" cx="260.519" cy="333.299" r="11.246"/>
	<circle style="fill:#BE802B;" cx="193.279" cy="324.159" r="11.246"/>
	<path style="fill:#BE802B;" d="M133.216,290.865c-6.212,0-11.248,5.042-11.248,11.246c0,6.22,5.036,11.254,11.248,11.254
		c6.214,0,11.25-5.034,11.25-11.254C144.466,295.906,139.431,290.865,133.216,290.865z"/>
</g>
<polygon style="fill:#DDBF0B;" points="150.845,261.815 150.845,365.288 182.182,374.431 182.182,270.95 "/>
<polygon style="fill:#CCAC0D;" points="175.001,254.303 150.845,261.815 182.182,270.95 212.538,261.487 "/>
<path style="fill:#E8CD07;" d="M202.348,317.557l-13.247-1.416l-3.135-0.466l-9.479-1.4c-4.646-0.505-8.812,2.861-9.303,7.513
	c-0.495,4.651,2.867,8.806,7.513,9.303l11.464,1.714l0.767,0.115l11.445,1.216c3.64-1.859,6.157-5.608,6.157-9.976
	C204.53,321.681,203.706,319.416,202.348,317.557z"/>
<g>
</g>
<g>
</g>
<g>
</g>
<g>
</g>
<g>
</g>
<g>
</g>
<g>
</g>
<g>
</g>
<g>
</g>
<g>
</g>
<g>
</g>
<g>
</g>
<g>
</g>
<g>
</g>
<g>
</g>
</svg>
